<svg width="19" height="17" viewBox="0 0 19 17" fill="none" xmlns="http://www.w3.org/2000/svg">
<rect x="0.099" y="0.099" width="18.018" height="16.434" rx="3.861" fill="#DBEEDD" stroke="#70AD71" stroke-width="0.198"/>
<path d="M13.357 2.34154L9.93153 4.09171C9.80565 4.15602 9.66464 4.18361 9.52329 4.183C7.79555 4.17553 6.37601 5.32011 7.26369 6.36503C8.2431 7.51792 9.74253 6.55317 10.2005 5.52663C10.3388 5.21649 10.5571 4.91404 10.8697 4.78147C11.9253 4.3339 13.3333 3.47561 13.9552 3.13043C14.2847 2.94748 13.8466 2.06969 13.357 2.34154Z" fill="#F1F8F1" stroke="#1C211C" stroke-width="0.396" stroke-linecap="round"/>
<ellipse cx="8.67071" cy="5.30268" rx="0.99" ry="0.594" transform="rotate(-24.1168 8.67071 5.30268)" fill="#DBEEDD"/>
<path d="M11.4159 5.54419H6.00998C5.83033 5.54419 5.68469 5.68982 5.68469 5.86948V6.07829C5.68469 6.14262 5.73684 6.19476 5.80116 6.19476C5.86549 6.19476 5.91764 6.24691 5.91764 6.31123V6.52005C5.91764 6.6997 5.772 6.84533 5.59235 6.84533H5.33528C5.01366 6.84533 4.75293 7.10606 4.75293 7.42769V13.4642C4.75293 14.1203 5.28482 14.6522 5.94093 14.6522H11.4849C12.141 14.6522 12.6729 14.1203 12.6729 13.4642V7.42769C12.6729 7.10606 12.4122 6.84533 12.0906 6.84533H11.8335C11.6539 6.84533 11.5082 6.6997 11.5082 6.52005V6.31123C11.5082 6.24691 11.5604 6.19476 11.6247 6.19476C11.689 6.19476 11.7412 6.14262 11.7412 6.07829V5.86948C11.7412 5.68982 11.5955 5.54419 11.4159 5.54419Z" fill="#70AD71" stroke="#1C211C" stroke-width="0.396" stroke-linecap="round"/>
<rect x="4.75293" y="8.71191" width="7.92" height="3.96" fill="#F1F8F1" stroke="#1C211C" stroke-width="0.396"/>
<line x1="6.33691" y1="9.84075" x2="11.0889" y2="9.84075" stroke="#1C211C" stroke-width="0.1188"/>
<line x1="7.12891" y1="10.2568" x2="11.0889" y2="10.2568" stroke="#1C211C" stroke-width="0.0792"/>
<line x1="8.71289" y1="10.6523" x2="11.0889" y2="10.6523" stroke="#1C211C" stroke-width="0.0792"/>
</svg>
