<svg width="18" height="18" viewBox="0 0 18 18" fill="none" xmlns="http://www.w3.org/2000/svg">
<g clip-path="url(#clip0_6159_2227)">
<path d="M15.1191 8.4812H16.5591" stroke="#0F172A" stroke-width="0.72" stroke-linecap="round" stroke-linejoin="round"/>
<path d="M0.719727 8.4812H2.15973" stroke="#0F172A" stroke-width="0.72" stroke-linecap="round" stroke-linejoin="round"/>
<path d="M12.24 8.4811C12.24 7.52632 11.8608 6.61065 11.1856 5.93552C10.5105 5.26039 9.59482 4.8811 8.64004 4.8811C7.68526 4.8811 6.76959 5.26039 6.09445 5.93552C5.41932 6.61065 5.04004 7.52632 5.04004 8.4811" fill="#FCE100"/>
<path d="M12.24 8.4811C12.24 7.52632 11.8608 6.61065 11.1856 5.93552C10.5105 5.26039 9.59482 4.8811 8.64004 4.8811C7.68526 4.8811 6.76959 5.26039 6.09445 5.93552C5.41932 6.61065 5.04004 7.52632 5.04004 8.4811" stroke="#0F172A" stroke-width="0.72" stroke-linecap="round" stroke-linejoin="round"/>
<path d="M13.2197 3.90204L14.2421 2.87964" stroke="#0F172A" stroke-width="0.72" stroke-linecap="round" stroke-linejoin="round"/>
<path d="M8.8831 2.88579V1.4399" stroke="#0F172A" stroke-width="0.72" stroke-linecap="round" stroke-linejoin="round"/>
<path d="M3.03809 2.87964L4.06049 3.90204" stroke="#0F172A" stroke-width="0.72" stroke-linecap="round" stroke-linejoin="round"/>
<rect x="0.24" y="10.7996" width="16.8" height="5.28" rx="0.24" fill="#02BCF2" stroke="#1E2D1E" stroke-width="0.48"/>
</g>
<defs>
<clipPath id="clip0_6159_2227">
<rect width="17.28" height="17.28" fill="white"/>
</clipPath>
</defs>
</svg>
