<svg width="18" height="39" viewBox="0 0 18 39" fill="none" xmlns="http://www.w3.org/2000/svg">
<path d="M9.54813 0.356651C12.0587 7.32866 6.59441 8.3837 3.75727 6.78391C3.67703 6.73866 3.58445 6.83322 3.62362 6.9166C8.75359 17.8368 21.217 4.42668 9.67127 0.235995C9.59794 0.209376 9.5217 0.283246 9.54813 0.356651Z" fill="#FCE100" fill-opacity="0.8" stroke="#1C211C" stroke-width="0.4608"/>
<path d="M8.63904 17.4817V15.9006H6.9888V15.2871H8.63904V13.7146H9.28704V15.2871H10.9373V15.9006H9.28704V17.4817H8.63904Z" fill="black"/>
<path d="M17.169 36.5266H0.746094" stroke="#0F172A" stroke-width="0.5184" stroke-linecap="round" stroke-linejoin="round"/>
<path d="M15.6758 33.5408H17.1688" stroke="#0F172A" stroke-width="0.5184" stroke-linecap="round" stroke-linejoin="round"/>
<path d="M0.746094 33.5408H2.23909" stroke="#0F172A" stroke-width="0.5184" stroke-linecap="round" stroke-linejoin="round"/>
<path d="M12.6896 33.5406C12.6896 32.5507 12.2963 31.6013 11.5964 30.9013C10.8964 30.2013 9.94701 29.8081 8.95709 29.8081C7.96717 29.8081 7.0178 30.2013 6.31783 30.9013C5.61785 31.6013 5.22461 32.5507 5.22461 33.5406" fill="#FCE100"/>
<path d="M12.6896 33.5406C12.6896 32.5507 12.2963 31.6013 11.5964 30.9013C10.8964 30.2013 9.94701 29.8081 8.95709 29.8081C7.96717 29.8081 7.0178 30.2013 6.31783 30.9013C5.61785 31.6013 5.22461 32.5507 5.22461 33.5406" stroke="#0F172A" stroke-width="0.5184" stroke-linecap="round" stroke-linejoin="round"/>
<path d="M13.7051 28.7929L14.7651 27.7329" stroke="#0F172A" stroke-width="0.5184" stroke-linecap="round" stroke-linejoin="round"/>
<path d="M3.15039 27.7329L4.21042 28.7929" stroke="#0F172A" stroke-width="0.5184" stroke-linecap="round" stroke-linejoin="round"/>
<path d="M8.95703 21.5967V26.8222" stroke="#0F172A" stroke-width="0.5184" stroke-linecap="round" stroke-linejoin="round"/>
<path d="M5.97266 24.5827L8.95864 21.5967L11.9446 24.5827" stroke="#0F172A" stroke-width="0.5184" stroke-linecap="round" stroke-linejoin="round"/>
</svg>
