<svg width="18" height="18" viewBox="0 0 18 18" fill="none" xmlns="http://www.w3.org/2000/svg">
<path d="M16.5597 15.8401H0.719727" stroke="#0F172A" stroke-width="0.72" stroke-linecap="round" stroke-linejoin="round"/>
<path d="M15.1201 12.96H16.5601" stroke="#0F172A" stroke-width="0.72" stroke-linecap="round" stroke-linejoin="round"/>
<path d="M0.719727 12.96H2.15973" stroke="#0F172A" stroke-width="0.72" stroke-linecap="round" stroke-linejoin="round"/>
<path d="M12.24 12.9601C12.24 12.0053 11.8608 11.0897 11.1856 10.4145C10.5105 9.73939 9.59482 9.36011 8.64004 9.36011C7.68526 9.36011 6.76959 9.73939 6.09445 10.4145C5.41932 11.0897 5.04004 12.0053 5.04004 12.9601" fill="#FCE100"/>
<path d="M12.24 12.9601C12.24 12.0053 11.8608 11.0897 11.1856 10.4145C10.5105 9.73939 9.59482 9.36011 8.64004 9.36011C7.68526 9.36011 6.76959 9.73939 6.09445 10.4145C5.41932 11.0897 5.04004 12.0053 5.04004 12.9601" stroke="#0F172A" stroke-width="0.72" stroke-linecap="round" stroke-linejoin="round"/>
<path d="M13.2188 8.3808L14.2412 7.3584" stroke="#0F172A" stroke-width="0.72" stroke-linecap="round" stroke-linejoin="round"/>
<path d="M3.03809 7.3584L4.06049 8.3808" stroke="#0F172A" stroke-width="0.72" stroke-linecap="round" stroke-linejoin="round"/>
<path d="M8.63965 1.43994V6.47994" stroke="#0F172A" stroke-width="0.72" stroke-linecap="round" stroke-linejoin="round"/>
<path d="M5.75977 4.31994L8.63977 1.43994L11.5198 4.31994" stroke="#0F172A" stroke-width="0.72" stroke-linecap="round" stroke-linejoin="round"/>
</svg>
