<svg width="19" height="17" viewBox="0 0 19 17" fill="none" xmlns="http://www.w3.org/2000/svg">
<rect x="0.099" y="0.099" width="18.018" height="16.434" rx="3.861" fill="#DBEEDD" stroke="#70AD71" stroke-width="0.198"/>
<path d="M15.2352 9.06354C15.3147 9.93388 14.8152 10.8053 13.8787 11.5067C12.9451 12.2058 11.6014 12.7142 10.0686 12.8543C8.53575 12.9944 7.12211 12.7381 6.07726 12.2199C5.02908 11.6999 4.37986 10.9335 4.3003 10.0631C4.22079 9.19285 4.72037 8.32232 5.65684 7.62092C6.59042 6.92171 7.9339 6.41253 9.46689 6.27238C10.9999 6.13224 12.4134 6.38943 13.4583 6.90775C14.5064 7.42773 15.1556 8.19325 15.2352 9.06354Z" fill="#70AD71" stroke="#1C211C" stroke-width="0.384912"/>
<path d="M11.3535 4.03306C11.9956 4.62603 12.2084 5.60766 11.9828 6.75579C11.7578 7.90019 11.1005 9.17773 10.0562 10.3085C9.01188 11.4392 7.79054 12.1958 6.66759 12.5108C5.54098 12.8267 4.54556 12.6925 3.90352 12.0995C3.26155 11.5066 3.04942 10.5255 3.27499 9.37747C3.49988 8.23296 4.1564 6.955 5.20083 5.82414C6.24526 4.69329 7.46713 3.93746 8.59018 3.62246C9.71674 3.30652 10.7115 3.44016 11.3535 4.03306Z" fill="#70AD71" stroke="#1C211C" stroke-width="0.384912"/>
<path d="M5.94531 10.952C6.25966 11.0418 7.05003 11.0597 7.69669 10.4131" stroke="#1C211C" stroke-width="0.384912"/>
<path d="M9.03125 9.73948C9.57014 9.33532 10.7018 8.31144 10.9174 7.44922" stroke="#1C211C" stroke-width="0.384912"/>
</svg>
