<svg width="18" height="17" viewBox="0 0 18 17" fill="none" xmlns="http://www.w3.org/2000/svg">
<rect x="0.096" y="0.096" width="17.472" height="15.936" rx="3.744" fill="#DBEEDD" stroke="#70AD71" stroke-width="0.192"/>
<path d="M12.4509 4.42781C13.0713 5.0011 13.2778 5.95007 13.0593 7.06221C12.8414 8.17085 12.2048 9.40949 11.1927 10.5054C10.1806 11.6011 8.99682 12.3334 7.90911 12.6386C6.81781 12.9446 5.85478 12.8148 5.23407 12.2418C4.61337 11.6685 4.40773 10.7189 4.62627 9.60663C4.84412 8.49804 5.48019 7.26008 6.49225 6.16418C7.50451 5.06816 8.68853 4.33538 9.77648 4.03026C10.8679 3.72417 11.8302 3.85455 12.4509 4.42781Z" fill="#70AD71" stroke="#1C211C" stroke-width="0.384"/>
<path d="M7.20996 11.1327C7.51479 11.2198 8.2812 11.2372 8.90827 10.6101" stroke="#1C211C" stroke-width="0.373248"/>
<path d="M10.2031 9.9567C10.7257 9.56479 11.823 8.57193 12.0321 7.73584" stroke="#1C211C" stroke-width="0.373248"/>
</svg>
