<svg width="19" height="17" viewBox="0 0 19 17" fill="none" xmlns="http://www.w3.org/2000/svg">
<rect x="0.099" y="0.099" width="18.018" height="16.434" rx="3.861" fill="#DBEEDD" stroke="#70AD71" stroke-width="0.198"/>
<path d="M3.9581 4.75195C1.91994 7.2603 -0.23558 12.4443 4.11483 12.277C8.19085 12.1202 6.15277 7.73061 3.9581 4.75195Z" fill="#70AD71" stroke="#1E2D1E" stroke-width="0.396" stroke-linecap="round"/>
<path d="M2.36711 9.61182C2.21034 10.0299 2.14763 10.9914 3.15097 11.4931" stroke="#F0FFF1" stroke-width="0.396" stroke-linecap="round"/>
<path d="M14.1266 4.7522C12.197 7.12695 10.1563 12.0349 14.275 11.8765C18.1339 11.728 16.2044 7.57222 14.1266 4.7522Z" fill="#70AD71" stroke="#1E2D1E" stroke-width="0.396" stroke-linecap="round"/>
<path d="M13.1533 8.97656C13.0049 9.37235 12.9456 10.2827 13.8955 10.7576" stroke="#F0FFF1" stroke-width="0.396" stroke-linecap="round"/>
<path d="M8.91923 2.61377C5.77129 6.30783 2.44207 13.9424 9.1613 13.6959C15.4567 13.4651 12.3089 7.00046 8.91923 2.61377Z" fill="#DBEEDD"/>
<path d="M8.93669 3.5647C6.36253 6.7327 3.64014 13.28 9.13463 13.0687C14.2826 12.8707 11.7085 7.3267 8.93669 3.5647Z" fill="#70AD71" stroke="#1C211C" stroke-width="0.396" stroke-linecap="round"/>
<path d="M6.92979 9.70215C6.73179 10.2301 6.65259 11.4445 7.91979 12.0781" stroke="#F0FFF1" stroke-width="0.396" stroke-linecap="round"/>
</svg>
