<svg width="14" height="12" viewBox="0 0 14 12" fill="none" xmlns="http://www.w3.org/2000/svg">
<path d="M12.729 6.84405C12.8011 7.63356 12.3484 8.42367 11.4989 9.05996C10.6519 9.69425 9.43284 10.1559 8.04216 10.283C6.65145 10.4102 5.36888 10.1772 4.42097 9.70699C3.47014 9.23528 2.8817 8.54034 2.80944 7.75084C2.73727 6.96129 3.19002 6.17126 4.03958 5.53493C4.88653 4.90059 6.10555 4.43899 7.4963 4.31185C8.88708 4.18471 10.1696 4.41763 11.1175 4.8879C12.0684 5.35965 12.6568 6.05447 12.729 6.84405Z" fill="#70AD71" stroke="#1C211C" stroke-width="0.349192"/>
<path d="M9.20833 2.28088C9.79068 2.81884 9.98377 3.70874 9.77914 4.75023C9.57509 5.78851 8.9791 6.94786 8.03162 7.97375C7.08411 8.99964 5.97573 9.68574 4.9569 9.97149C3.93493 10.2581 3.03251 10.1362 2.45005 9.59839C1.86761 9.06046 1.67463 8.17058 1.87925 7.12904C2.08325 6.09072 2.67924 4.93147 3.62677 3.90553C4.57431 2.87957 5.68261 2.19352 6.70148 1.90778C7.72354 1.62115 8.62588 1.74294 9.20833 2.28088Z" fill="#70AD71" stroke="#1C211C" stroke-width="0.349192"/>
<path d="M4.30371 8.55699C4.58889 8.63847 5.30591 8.65477 5.89256 8.06812" stroke="#1C211C" stroke-width="0.349192"/>
<path d="M7.10352 7.45737C7.59239 7.09071 8.61904 6.16184 8.81459 5.37964" stroke="#1C211C" stroke-width="0.349192"/>
</svg>
